<?xml version="1.0" standalone="no"?>
<!DOCTYPE svg PUBLIC "-//W3C//DTD SVG 20010904//EN"
 "http://www.w3.org/TR/2001/REC-SVG-20010904/DTD/svg10.dtd">
<svg version="1.0" xmlns="http://www.w3.org/2000/svg"
 width="1080.000000pt" height="1080.000000pt" viewBox="0 0 1080.000000 1080.000000"
 preserveAspectRatio="xMidYMid meet">

<g transform="translate(0.000000,1080.000000) scale(0.100000,-0.100000)"
fill="#000000" stroke="none">
<path d="M4780 5110 l0 -560 75 0 75 0 0 158 c0 86 -7 306 -15 487 -8 182 -15
333 -15 338 0 4 9 7 20 7 25 0 23 12 61 -350 18 -177 44 -372 63 -465 l32
-160 90 -3 89 -3 33 163 c17 90 45 291 62 448 40 385 37 370 61 370 23 0 23
34 4 -385 -8 -181 -15 -392 -15 -467 l0 -138 75 0 75 0 0 560 0 561 -127 -3
-127 -3 -37 -214 c-28 -159 -41 -277 -53 -460 -9 -135 -16 -261 -16 -278 0
-26 -4 -33 -20 -33 -24 0 -25 5 -45 305 -11 171 -26 304 -53 463 l-37 222
-127 0 -128 0 0 -560z"/>
<path d="M5680 5110 l0 -560 75 0 75 0 0 560 0 560 -75 0 -75 0 0 -560z"/>
<path d="M5950 5638 c5 -18 39 -141 74 -272 l65 -239 -74 -279 c-41 -154 -75
-284 -75 -289 0 -6 28 -9 67 -7 l67 3 33 130 c18 72 40 185 49 253 12 85 21
122 30 122 14 0 17 -11 39 -170 14 -96 67 -325 78 -336 3 -3 34 -4 69 -2 l65
3 -74 283 -74 283 66 252 c36 139 68 262 71 275 6 21 4 22 -63 22 l-69 0 -32
-132 c-17 -73 -36 -171 -42 -218 -15 -121 -20 -140 -35 -140 -8 0 -16 30 -24
98 -10 79 -56 302 -77 375 -4 14 -17 17 -74 17 l-68 0 8 -32z"/>
</g>
</svg>
